<svg width="80" height="80" viewBox="0 0 80 80" fill="none" xmlns="http://www.w3.org/2000/svg">
<path fill-rule="evenodd" clip-rule="evenodd" d="M12.1758 55.804C11.5552 56.8572 10.8583 58.0792 10.2664 59.0529C9.73662 59.9847 10.021 61.1863 10.9061 61.7554L23.3169 69.7038C23.7526 69.9837 24.278 70.0698 24.7752 69.9428C25.2725 69.8158 25.6998 69.4862 25.9614 69.0282C26.4578 68.1638 27.0975 67.0411 27.7944 65.8389C32.711 57.3937 37.6563 58.427 46.573 62.8582L58.8788 68.9487C59.3449 69.1796 59.8809 69.2042 60.3648 69.017C60.8486 68.8298 61.239 68.4468 61.4469 67.9551L67.3564 54.0454C67.7739 53.052 67.3491 51.8936 66.4017 51.4423C63.805 50.1706 58.6402 47.637 53.9909 45.3022C37.2648 36.847 23.0496 37.3935 12.1758 55.804Z" fill="url(#paint0_linear_1_283)"/>
<path fill-rule="evenodd" clip-rule="evenodd" d="M67.8242 24.2388C68.4448 23.1856 69.1417 21.9635 69.7336 20.9899C70.2634 20.0581 69.979 18.8564 69.094 18.2874L56.6831 10.339C56.2439 10.0311 55.7016 9.92691 55.1857 10.0512C54.6698 10.1756 54.2267 10.5173 53.9622 10.9947C53.4658 11.8591 52.8262 12.9818 52.1293 14.184C47.2126 22.6292 42.2674 21.5959 33.3507 17.1647L21.083 11.104C20.6169 10.8732 20.0809 10.8485 19.5971 11.0357C19.1133 11.2229 18.7229 11.6059 18.5149 12.0976L12.6054 26.0073C12.1879 27.0007 12.6127 28.1591 13.5601 28.6104C16.1568 29.8821 21.3217 32.4157 25.971 34.7505C42.7352 43.1957 56.9504 42.6294 67.8242 24.2388Z" fill="url(#paint1_linear_1_283)"/>
<defs>
<linearGradient id="paint0_linear_1_283" x1="67.0223" y1="73.8072" x2="52.1664" y2="41.059" gradientUnits="userSpaceOnUse">
<stop offset="0.18" stop-color="#0052CC"/>
<stop offset="1" stop-color="#2684FF"/>
</linearGradient>
<linearGradient id="paint1_linear_1_283" x1="12.9777" y1="6.22568" x2="27.8569" y2="38.9889" gradientUnits="userSpaceOnUse">
<stop offset="0.18" stop-color="#0052CC"/>
<stop offset="1" stop-color="#2684FF"/>
</linearGradient>
</defs>
</svg>
