<svg width="80" height="80" viewBox="0 0 80 80" fill="none" xmlns="http://www.w3.org/2000/svg">
<g filter="url(#filter0_d_1_292)">
<path d="M5 29.8889C5 21.177 5 16.821 6.69545 13.4935C8.18682 10.5665 10.5665 8.18682 13.4935 6.69545C16.821 5 21.177 5 29.8889 5H50.1111C58.823 5 63.179 5 66.5065 6.69545C69.4335 8.18682 71.8132 10.5665 73.3045 13.4935C75 16.821 75 21.177 75 29.8889V50.1111C75 58.823 75 63.179 73.3045 66.5065C71.8132 69.4335 69.4335 71.8132 66.5065 73.3045C63.179 75 58.823 75 50.1111 75H29.8889C21.177 75 16.821 75 13.4935 73.3045C10.5665 71.8132 8.18682 69.4335 6.69545 66.5065C5 63.179 5 58.823 5 50.1111V29.8889Z" fill="white"/>
<path d="M61.2314 15H53.1031V26.7781H64.9968V18.3211C65 18.3211 64.409 15.3212 61.2314 15Z" fill="#1967D2"/>
<path d="M53.1063 64.9452V64.9741V64.9998L65 53.2217H64.8934L53.1063 64.9452Z" fill="#1967D2"/>
<path d="M64.999 53.2213V53.1157L64.8934 53.2213H64.999Z" fill="#FBBC05"/>
<path d="M65 26.7784H53.1063V53.1161H65V26.7784Z" fill="#FBBC05"/>
<path d="M64.8934 53.2217H53.1063V64.9452L64.8934 53.2217Z" fill="#EA4335"/>
<path d="M53.1063 53.2213H64.8934L65 53.1157H53.1063V53.2213Z" fill="#EA4335"/>
<path d="M53.0773 64.9743H53.1061V64.9455L53.0773 64.9743Z" fill="#34A853"/>
<path d="M26.6257 53.1157V64.9741H53.0773L53.1063 53.1157H26.6257Z" fill="#34A853"/>
<path d="M53.1061 53.2217V53.1157L53.0773 64.9741L53.1061 64.9452V53.2217Z" fill="#34A853"/>
<path d="M15 53.1157V61.3607C15.1066 64.0363 18.0001 64.9741 18.0001 64.9741H26.6257V53.1157H15Z" fill="#188038"/>
<path d="M26.6257 26.7782H53.1063V15.0001H18.3359C18.3359 15.0001 15.2131 15.3213 15 18.6392V53.116H26.6257V26.7782Z" fill="#4285F4"/>
<path d="M35.289 47.7848C34.6832 47.7848 34.099 47.7059 33.5364 47.548C32.9883 47.3902 32.4835 47.1535 32.0219 46.8379C31.5603 46.5079 31.1492 46.099 30.7886 45.6113C30.4424 45.1235 30.1756 44.5568 29.988 43.9112L32.6493 42.8567C32.8369 43.574 33.1542 44.1192 33.6014 44.4922C34.0485 44.8509 34.6111 45.0302 35.289 45.0302C35.5919 45.0302 35.8804 44.9872 36.1545 44.9011C36.4285 44.8007 36.6665 44.6644 36.8685 44.4922C37.0704 44.3201 37.2291 44.1192 37.3445 43.8897C37.4743 43.6458 37.5392 43.3732 37.5392 43.0719C37.5392 42.4407 37.3012 41.9457 36.8252 41.587C36.3636 41.2284 35.7217 41.049 34.8996 41.049H33.623V38.4882H34.7914C35.0799 38.4882 35.3611 38.4523 35.6352 38.3806C35.9093 38.3088 36.1473 38.2012 36.3492 38.0578C36.5656 37.9 36.7315 37.7063 36.8468 37.4767C36.9767 37.2328 37.0416 36.9531 37.0416 36.6375C37.0416 36.1497 36.8685 35.7551 36.5223 35.4539C36.1761 35.1382 35.7073 34.9804 35.1159 34.9804C34.4812 34.9804 33.9908 35.1526 33.6446 35.4969C33.3129 35.8269 33.0821 36.1999 32.9523 36.6159L30.3559 35.5615C30.4857 35.2028 30.6804 34.837 30.94 34.464C31.1997 34.0766 31.5242 33.7323 31.9137 33.431C32.3176 33.1154 32.7864 32.8643 33.3201 32.6778C33.8538 32.477 34.4668 32.3765 35.1592 32.3765C35.866 32.3765 36.5079 32.477 37.0849 32.6778C37.6763 32.8787 38.1811 33.1584 38.5994 33.5171C39.0177 33.8614 39.3423 34.2774 39.5731 34.7652C39.8039 35.2387 39.9193 35.7551 39.9193 36.3147C39.9193 36.7451 39.8616 37.1324 39.7462 37.4767C39.6452 37.8211 39.5082 38.1295 39.3351 38.4021C39.162 38.6747 38.96 38.9114 38.7292 39.1122C38.5129 39.2988 38.2893 39.4494 38.0585 39.5642V39.7363C38.7509 40.0089 39.3206 40.4465 39.7678 41.049C40.2294 41.6516 40.4602 42.412 40.4602 43.3301C40.4602 43.9757 40.3376 44.5711 40.0923 45.1163C39.8471 45.6471 39.4937 46.1134 39.0321 46.5151C38.585 46.9168 38.0441 47.2252 37.4094 47.4404C36.7747 47.67 36.0679 47.7848 35.289 47.7848Z" fill="#4285F4"/>
<path d="M45.6271 47.4404V36.0349L43.0091 37.1324L41.9705 34.7437L46.3195 32.7208H48.4615V47.4404H45.6271Z" fill="#4285F4"/>
</g>
<defs>
<filter id="filter0_d_1_292" x="-2" y="-1" width="84" height="84" filterUnits="userSpaceOnUse" color-interpolation-filters="sRGB">
<feFlood flood-opacity="0" result="BackgroundImageFix"/>
<feColorMatrix in="SourceAlpha" type="matrix" values="0 0 0 0 0 0 0 0 0 0 0 0 0 0 0 0 0 0 127 0" result="hardAlpha"/>
<feOffset dy="1"/>
<feGaussianBlur stdDeviation="1"/>
<feColorMatrix type="matrix" values="0 0 0 0 0.0627451 0 0 0 0 0.0941176 0 0 0 0 0.156863 0 0 0 0.05 0"/>
<feBlend mode="normal" in2="BackgroundImageFix" result="effect1_dropShadow_1_292"/>
<feBlend mode="normal" in="SourceGraphic" in2="effect1_dropShadow_1_292" result="shape"/>
</filter>
</defs>
</svg>
