<svg width="15" height="14" viewBox="0 0 15 14" fill="none" xmlns="http://www.w3.org/2000/svg">
<path d="M8.29945 0.0327148C9.08516 0.0348101 9.48395 0.0390005 9.82826 0.0487782L9.96376 0.053667C10.1202 0.0592543 10.2745 0.0662383 10.461 0.0746192C11.2041 0.10954 11.7112 0.226872 12.1561 0.399379C12.617 0.576774 13.0053 0.817026 13.3936 1.20464C13.7488 1.55377 14.0236 1.97609 14.1989 2.44222C14.3714 2.8871 14.4887 3.39415 14.5237 4.13795C14.532 4.32373 14.539 4.47808 14.5446 4.63522L14.5488 4.77071C14.5593 5.11433 14.5635 5.51311 14.5649 6.29882L14.5656 6.81983V7.73475C14.5673 8.24417 14.5619 8.75359 14.5495 9.26286L14.5453 9.39835C14.5397 9.5555 14.5327 9.70984 14.5244 9.89562C14.4894 10.6394 14.3707 11.1458 14.1989 11.5914C14.0241 12.0577 13.7492 12.4802 13.3936 12.8289C13.0444 13.1839 12.6221 13.4587 12.1561 13.6342C11.7112 13.8067 11.2041 13.924 10.461 13.959C10.2953 13.9668 10.1295 13.9737 9.96376 13.9799L9.82826 13.9841C9.48395 13.9939 9.08516 13.9988 8.29945 14.0002L7.77844 14.0009H6.86422C6.35457 14.0026 5.84492 13.9973 5.33541 13.9848L5.19992 13.9806C5.03413 13.9743 4.86837 13.9671 4.70265 13.959C3.95955 13.924 3.45251 13.8067 3.00692 13.6342C2.54085 13.4592 2.1187 13.1843 1.77004 12.8289C1.41459 12.4799 1.13954 12.0576 0.964082 11.5914C0.791576 11.1465 0.674243 10.6394 0.639323 9.89562C0.631542 9.7299 0.624558 9.56414 0.618371 9.39835L0.614879 9.26286C0.602008 8.7536 0.596188 8.24418 0.597418 7.73475V6.29882C0.595469 5.7894 0.600591 5.27998 0.612783 4.77071L0.617672 4.63522C0.623259 4.47808 0.630244 4.32373 0.638624 4.13795C0.673545 3.39415 0.790877 2.8878 0.963384 2.44222C1.13876 1.97562 1.41436 1.55316 1.77074 1.20464C2.11931 0.849484 2.54119 0.57467 3.00692 0.399379C3.45251 0.226872 3.95885 0.10954 4.70265 0.0746192C4.88843 0.0662383 5.04348 0.0592543 5.19992 0.053667L5.33541 0.0494766C5.84469 0.0370678 6.3541 0.0317128 6.86353 0.0334132L8.29945 0.0327148ZM7.58149 3.52475C6.65534 3.52475 5.76713 3.89266 5.11225 4.54754C4.45736 5.20243 4.08945 6.09064 4.08945 7.01679C4.08945 7.94293 4.45736 8.83114 5.11225 9.48603C5.76713 10.1409 6.65534 10.5088 7.58149 10.5088C8.50763 10.5088 9.39585 10.1409 10.0507 9.48603C10.7056 8.83114 11.0735 7.94293 11.0735 7.01679C11.0735 6.09064 10.7056 5.20243 10.0507 4.54754C9.39585 3.89266 8.50763 3.52475 7.58149 3.52475ZM7.58149 4.92156C7.85664 4.92152 8.1291 4.97567 8.38332 5.08092C8.63754 5.18617 8.86854 5.34047 9.06314 5.53499C9.25773 5.72952 9.4121 5.96047 9.51744 6.21466C9.62277 6.46884 9.67701 6.74129 9.67706 7.01644C9.6771 7.29158 9.62296 7.56405 9.5177 7.81827C9.41245 8.07249 9.25816 8.30349 9.06363 8.49808C8.8691 8.69268 8.63815 8.84705 8.38397 8.95238C8.12978 9.05772 7.85734 9.11196 7.58219 9.11201C7.0265 9.11201 6.49357 8.89126 6.10064 8.49833C5.70771 8.1054 5.48697 7.57247 5.48697 7.01679C5.48697 6.4611 5.70771 5.92817 6.10064 5.53524C6.49357 5.14231 7.0265 4.92156 7.58219 4.92156M11.2488 2.47714C11.0173 2.47714 10.7952 2.56912 10.6315 2.73284C10.4678 2.89656 10.3758 3.11861 10.3758 3.35015C10.3758 3.58168 10.4678 3.80374 10.6315 3.96746C10.7952 4.13118 11.0173 4.22316 11.2488 4.22316C11.4804 4.22316 11.7024 4.13118 11.8661 3.96746C12.0299 3.80374 12.1218 3.58168 12.1218 3.35015C12.1218 3.11861 12.0299 2.89656 11.8661 2.73284C11.7024 2.56912 11.4804 2.47714 11.2488 2.47714Z" fill="#535965"/>
</svg>
