<svg width="13" height="14" viewBox="0 0 13 14" fill="none" xmlns="http://www.w3.org/2000/svg">
<path d="M11.3114 0.731445C11.6818 0.731445 12.0371 0.878609 12.2991 1.14056C12.561 1.40252 12.7082 1.7578 12.7082 2.12826V11.906C12.7082 12.2764 12.561 12.6317 12.2991 12.8937C12.0371 13.1556 11.6818 13.3028 11.3114 13.3028H1.53369C1.16323 13.3028 0.807942 13.1556 0.545989 12.8937C0.284035 12.6317 0.136871 12.2764 0.136871 11.906V2.12826C0.136871 1.7578 0.284035 1.40252 0.545989 1.14056C0.807942 0.878609 1.16323 0.731445 1.53369 0.731445H11.3114ZM10.9622 11.5568V7.8552C10.9622 7.25135 10.7223 6.67224 10.2953 6.24525C9.86833 5.81827 9.28922 5.57839 8.68537 5.57839C8.09173 5.57839 7.4003 5.94156 7.06507 6.48632V5.71109H5.11651V11.5568H7.06507V8.11361C7.06507 7.57583 7.49808 7.13584 8.03585 7.13584C8.29518 7.13584 8.54387 7.23885 8.72724 7.42222C8.91061 7.60559 9.01362 7.85429 9.01362 8.11361V11.5568H10.9622ZM2.84669 4.61459C3.15788 4.61459 3.45632 4.49097 3.67636 4.27093C3.8964 4.05089 4.02001 3.75245 4.02001 3.44126C4.02001 2.79175 3.49621 2.26096 2.84669 2.26096C2.53365 2.26096 2.23344 2.38531 2.01209 2.60666C1.79074 2.82801 1.66638 3.12823 1.66638 3.44126C1.66638 4.09078 2.19717 4.61459 2.84669 4.61459ZM3.81748 11.5568V5.71109H1.88289V11.5568H3.81748Z" fill="#535965"/>
</svg>
