<svg width="15" height="14" viewBox="0 0 15 14" fill="none" xmlns="http://www.w3.org/2000/svg">
<path d="M7.93153 0.0332031C11.7888 0.0332031 14.9156 3.15997 14.9156 7.01727C14.9156 10.8746 11.7888 14.0013 7.93153 14.0013C6.69729 14.0033 5.48477 13.6767 4.41854 13.055L0.950252 14.0013L1.8945 10.5317C1.27228 9.4651 0.945397 8.25206 0.947458 7.01727C0.947458 3.15997 4.07423 0.0332031 7.93153 0.0332031ZM5.55136 3.73476L5.41168 3.74035C5.32125 3.74586 5.23287 3.76961 5.15187 3.81019C5.07611 3.85309 5.00695 3.90673 4.94654 3.96943C4.86273 4.04835 4.81524 4.11679 4.76425 4.18314C4.50593 4.519 4.36684 4.93135 4.36895 5.35507C4.37035 5.69728 4.45975 6.03043 4.59943 6.34191C4.88508 6.97188 5.35511 7.63886 5.97529 8.25695C6.12475 8.40571 6.27142 8.55517 6.42926 8.69415C7.19987 9.37263 8.11818 9.86191 9.11114 10.1231L9.50783 10.1839C9.63704 10.1908 9.76624 10.1811 9.89615 10.1748C10.0996 10.1643 10.2982 10.1092 10.4779 10.0134C10.5694 9.96633 10.6586 9.91506 10.7454 9.85979C10.7454 9.85979 10.7754 9.84024 10.8327 9.79693C10.927 9.72709 10.985 9.67751 11.0632 9.59579C11.1212 9.53573 11.1714 9.46519 11.2099 9.38487C11.2643 9.27103 11.3188 9.05383 11.3412 8.87294C11.3579 8.73466 11.353 8.65923 11.3509 8.61244C11.3481 8.53771 11.286 8.46018 11.2182 8.42736L10.8118 8.24507C10.8118 8.24507 10.2041 7.98038 9.83259 7.81136C9.79371 7.79439 9.75205 7.78468 9.70967 7.78273C9.66189 7.77782 9.61361 7.7832 9.56807 7.7985C9.52254 7.8138 9.4808 7.83866 9.44567 7.87143C9.44218 7.87003 9.39539 7.90984 8.89044 8.52164C8.86146 8.56059 8.82154 8.59002 8.77577 8.60619C8.72999 8.62236 8.68044 8.62453 8.63343 8.61244C8.58793 8.60024 8.54335 8.58483 8.50003 8.56634C8.41343 8.53002 8.3834 8.51606 8.32403 8.49091C7.92319 8.31599 7.55208 8.07966 7.22404 7.79041C7.13604 7.71359 7.05433 7.62978 6.97052 7.54876C6.69576 7.28562 6.4563 6.98795 6.25815 6.66318L6.21694 6.59683C6.18734 6.55225 6.16341 6.50416 6.1457 6.45366C6.11916 6.35099 6.1883 6.26858 6.1883 6.26858C6.1883 6.26858 6.35802 6.08281 6.43694 5.98223C6.51376 5.88446 6.57871 5.78947 6.62062 5.72173C6.70303 5.58903 6.72887 5.45284 6.68557 5.34738C6.49002 4.86967 6.28748 4.39406 6.07935 3.92193C6.03815 3.82835 5.91593 3.7613 5.80488 3.74803C5.76717 3.74384 5.72945 3.73965 5.69174 3.73686C5.59795 3.7322 5.50396 3.73313 5.41028 3.73965L5.55136 3.73476Z" fill="#535965"/>
</svg>
