<svg width="160" height="28" viewBox="0 0 160 28" fill="none" xmlns="http://www.w3.org/2000/svg">
<path d="M153.922 22.3616C153.414 21.7951 152.983 21.1629 152.641 20.4819C152.1 19.4144 151.353 18.4667 150.443 17.6947C149.533 16.9227 148.479 16.3418 147.343 15.9865C146.349 15.6771 145.309 15.5458 144.271 15.5985C145.027 15.555 145.771 15.8008 146.354 16.2869C146.938 16.7728 147.318 17.463 147.418 18.2191C147.691 19.8528 148.41 21.3778 149.494 22.6237C150.578 23.8696 151.985 24.7874 153.557 25.2745C155.354 25.831 157.28 25.801 159.06 25.1889C157.078 24.8632 155.265 23.8659 153.922 22.3616Z" fill="#22D3EE"/>
<path d="M141.176 15.4369C141.408 16.4456 141.815 17.4064 142.379 18.2763C141.967 17.6447 141.808 16.8828 141.934 16.1409C142.061 15.3989 142.462 14.7308 143.06 14.2684C144.33 13.2257 145.283 11.8536 145.814 10.3049C146.345 8.7562 146.432 7.09167 146.066 5.49671C145.648 3.67212 144.657 2.02658 143.235 0.797607C143.943 2.67531 143.984 4.7366 143.351 6.64041C143.108 7.35915 142.771 8.04298 142.349 8.6742C141.7 9.66579 141.258 10.7765 141.049 11.9406C140.839 13.1048 140.868 14.2987 141.131 15.4519L141.176 15.4369Z" fill="#8B5CF6"/>
<path d="M145.605 18.9485C145.269 19.6271 144.693 20.1516 143.993 20.4167C143.292 20.6819 142.519 20.6682 141.827 20.3783C140.304 19.7984 138.653 19.6603 137.057 19.9792C135.461 20.2981 133.984 21.0616 132.79 22.1844C131.43 23.4703 130.506 25.162 130.153 27.0156C131.419 25.4542 133.172 24.3782 135.121 23.9653C135.854 23.8131 136.602 23.7541 137.348 23.7897C138.52 23.8514 139.691 23.6741 140.794 23.2682C141.896 22.8624 142.908 22.2363 143.768 21.4268C144.521 20.7163 145.146 19.8776 145.615 18.9485H145.605Z" fill="#2DD4BF"/>
<path d="M0.775635 26.8975H5.02003V16.5619C5.02003 15.4171 5.33323 14.4991 5.95963 13.8079C6.58603 13.1167 7.40683 12.7711 8.42203 12.7711C9.45883 12.7711 10.2796 13.1167 10.8844 13.8079C11.5108 14.4775 11.824 15.3955 11.824 16.5619V26.8975H16.0684V16.5619C16.0684 15.4171 16.3816 14.4991 17.008 13.8079C17.6344 13.1167 18.4552 12.7711 19.4704 12.7711C20.5072 12.7711 21.328 13.1167 21.9328 13.8079C22.5592 14.4775 22.8724 15.3955 22.8724 16.5619V26.8975H27.1168V15.5575C27.1168 14.2399 26.8252 13.0843 26.242 12.0907C25.6804 11.0755 24.9136 10.2871 23.9416 9.72552C22.9696 9.16392 21.8572 8.88312 20.6044 8.88312C19.438 8.88312 18.3796 9.12072 17.4292 9.59592C16.5004 10.0711 15.7336 10.7839 15.1288 11.7343C14.6104 10.8703 13.8652 10.1791 12.8932 9.66072C11.9428 9.14232 10.8736 8.88312 9.68563 8.88312C8.58403 8.88312 7.60123 9.09912 6.73723 9.53112C5.87323 9.96312 5.21444 10.6111 4.76084 11.4751V9.27192H0.775635V26.8975Z" fill="#0F172A"/>
<path d="M36.0537 27.2863C38.3433 27.2863 40.1793 26.5303 41.5617 25.0183V26.8975H45.5793V15.1687C45.5793 13.9375 45.2661 12.8467 44.6397 11.8963C44.0133 10.9459 43.1493 10.2115 42.0477 9.69312C40.9677 9.15312 39.7041 8.88312 38.2569 8.88312C36.4857 8.88312 34.9089 9.30432 33.5265 10.1467C32.1441 10.9891 31.1937 12.1015 30.6753 13.4839L34.1421 15.1687C34.4661 14.3695 34.9737 13.7323 35.6649 13.2571C36.3561 12.7603 37.1661 12.5119 38.0949 12.5119C39.0669 12.5119 39.8445 12.7711 40.4277 13.2895C41.0325 13.7863 41.3349 14.4127 41.3349 15.1687V15.7519L36.0861 16.5943C34.0125 16.9399 32.4789 17.5987 31.4853 18.5707C30.4917 19.5427 29.9949 20.7631 29.9949 22.2319C29.9949 23.7871 30.5457 25.0183 31.6473 25.9255C32.7489 26.8327 34.2177 27.2863 36.0537 27.2863ZM34.4013 22.0699C34.4013 20.8387 35.2329 20.0611 36.8961 19.7371L41.3349 18.9919V19.7047C41.3349 20.9143 40.9137 21.9403 40.0713 22.7827C39.2505 23.6251 38.1705 24.0463 36.8313 24.0463C36.1185 24.0463 35.5353 23.8735 35.0817 23.5279C34.6281 23.1607 34.4013 22.6747 34.4013 22.0699Z" fill="#0F172A"/>
<path d="M49.5022 26.8975H53.7466V17.0803C53.7466 15.7411 54.1138 14.7043 54.8482 13.9699C55.6042 13.2139 56.5762 12.8359 57.7642 12.8359H59.287V9.07752H58.2502C57.1702 9.07752 56.2198 9.27192 55.399 9.66072C54.5782 10.0495 53.941 10.7515 53.4874 11.7667V9.27192H49.5022V26.8975Z" fill="#0F172A"/>
<path d="M70.1304 27.0919C70.8432 27.0919 71.5452 27.0379 72.2364 26.9299V23.2687C71.826 23.3335 71.448 23.3659 71.1024 23.3659C70.0656 23.3659 69.3096 23.1283 68.8344 22.6531C68.3592 22.1779 68.1216 21.4975 68.1216 20.6119V13.0627H72.1716V9.27192H68.1216V5.25432H63.8772V6.61512C63.8772 7.47912 63.6396 8.13792 63.1644 8.59152C62.6892 9.04512 62.0196 9.27192 61.1556 9.27192H60.8316V13.0627H63.8772V20.8387C63.8772 22.8043 64.4172 24.3379 65.4972 25.4395C66.5988 26.5411 68.1432 27.0919 70.1304 27.0919Z" fill="#0F172A"/>
<path d="M75.4791 7.29552H79.7235V2.75952H75.4791V7.29552ZM75.4791 26.8975H79.7235V9.27192H75.4791V26.8975Z" fill="#0F172A"/>
<path d="M83.6424 26.8975H87.8868V16.5619C87.8868 15.4171 88.2108 14.4991 88.8588 13.8079C89.5284 13.1167 90.3924 12.7711 91.4508 12.7711C92.5092 12.7711 93.3624 13.1167 94.0104 13.8079C94.68 14.4775 95.0148 15.3955 95.0148 16.5619V26.8975H99.2592V15.5575C99.2592 14.2399 98.9784 13.0843 98.4168 12.0907C97.8552 11.0755 97.0668 10.2871 96.0516 9.72552C95.058 9.16392 93.9132 8.88312 92.6172 8.88312C91.5156 8.88312 90.522 9.09912 89.6364 9.53112C88.7724 9.96312 88.1028 10.6003 87.6276 11.4427V9.27192H83.6424V26.8975Z" fill="#0F172A"/>
<path d="M111.467 27.2863C113.173 27.2863 114.728 26.8975 116.132 26.1199C117.536 25.3207 118.659 24.2299 119.502 22.8475C120.344 21.4435 120.765 19.8559 120.765 18.0847C120.765 16.3135 120.344 14.7367 119.502 13.3543C118.681 11.9719 117.569 10.8811 116.165 10.0819C114.761 9.28272 113.195 8.88312 111.467 8.88312C109.717 8.88312 108.14 9.28272 106.736 10.0819C105.332 10.8811 104.209 11.9719 103.367 13.3543C102.546 14.7367 102.135 16.3135 102.135 18.0847C102.135 19.8559 102.546 21.4327 103.367 22.8151C104.209 24.1975 105.332 25.2883 106.736 26.0875C108.162 26.8867 109.739 27.2863 111.467 27.2863ZM111.467 23.3983C110.516 23.3983 109.663 23.1715 108.907 22.7179C108.173 22.2643 107.589 21.6379 107.157 20.8387C106.747 20.0179 106.542 19.0999 106.542 18.0847C106.542 17.0695 106.747 16.1623 107.157 15.3631C107.589 14.5639 108.173 13.9375 108.907 13.4839C109.663 13.0087 110.516 12.7711 111.467 12.7711C112.417 12.7711 113.249 13.0087 113.961 13.4839C114.696 13.9375 115.268 14.5639 115.679 15.3631C116.111 16.1623 116.327 17.0695 116.327 18.0847C116.327 19.0999 116.111 20.0179 115.679 20.8387C115.268 21.6379 114.696 22.2643 113.961 22.7179C113.249 23.1715 112.417 23.3983 111.467 23.3983Z" fill="#0F172A"/>
</svg>
