<svg width="169" height="36" viewBox="0 0 169 36" fill="none" xmlns="http://www.w3.org/2000/svg">
<path d="M19.6934 6.11934L21.0318 4.78097C23.66 2.15277 27.9387 2.08772 30.5821 4.70078C31.5837 5.69312 32.2493 6.97428 32.4854 8.36431C32.7216 9.75436 32.5162 11.1834 31.8984 12.4508C31.6021 13.0562 31.5023 13.7391 31.6128 14.404C31.7234 15.0689 32.0389 15.6827 32.5152 16.1596C33.3912 15.2816 34.0854 14.2397 34.5585 13.0933C35.0316 11.947 35.2742 10.7186 35.2725 9.47846C35.2706 8.23832 35.0247 7.01066 34.5483 5.86564C34.072 4.7206 33.3746 3.68064 32.4963 2.80517C28.8001 -0.870213 22.8004 -0.797074 19.1145 2.88864L6.3576 15.6452L5.30886 14.5965C2.63609 11.9237 2.61905 7.55477 5.33898 4.92949C6.34578 3.96073 7.62845 3.32832 9.00998 3.11957C10.3915 2.91082 11.8038 3.13602 13.0518 3.76408C13.6215 4.056 14.2689 4.16042 14.9014 4.06245C15.534 3.96448 16.1194 3.66911 16.5741 3.21854L16.6066 3.18619C16.6167 3.17614 16.6247 3.16418 16.6302 3.15099C16.6357 3.13783 16.6385 3.1237 16.6385 3.10943C16.6385 3.09517 16.6357 3.08104 16.6302 3.06787C16.6247 3.05471 16.6167 3.04275 16.6066 3.03268C14.8508 1.32098 12.4979 0.359522 10.0458 0.351749C7.59373 0.343977 5.23478 1.2905 3.46816 2.99103C-0.337337 6.6647 -0.323738 12.7737 3.41653 16.5139L16.1697 29.267L14.8149 30.6218C12.1867 33.25 7.90781 33.315 5.26464 30.702C4.26304 29.7097 3.59743 28.4284 3.36131 27.0384C3.12519 25.6485 3.3304 24.2194 3.94813 22.9519C4.24449 22.3465 4.34437 21.6636 4.23383 20.9988C4.12328 20.3339 3.80782 19.72 3.33152 19.2432C2.45561 20.1212 1.76128 21.163 1.28818 22.3093C0.815072 23.4558 0.57247 24.684 0.574228 25.9243C0.575986 27.1644 0.822069 28.3921 1.29842 29.5371C1.77478 30.6822 2.47207 31.7221 3.35045 32.5976C7.04649 36.2731 13.0463 36.2002 16.7322 32.5143L29.5057 19.7407L30.5583 20.7934C33.1866 23.4216 33.2516 27.7003 30.6385 30.3435C29.6463 31.3452 28.365 32.0107 26.975 32.247C25.585 32.4831 24.156 32.2778 22.8885 31.66C22.2829 31.3635 21.5997 31.2635 20.9346 31.3743C20.2694 31.485 19.6554 31.8008 19.1785 32.2775C20.0565 33.1534 21.0984 33.8478 22.2447 34.3209C23.3912 34.794 24.6194 35.0366 25.8597 35.0349C27.0998 35.033 28.3275 34.7869 29.4724 34.3106C30.6175 33.8342 31.6575 33.1369 32.5329 32.2585C36.2085 28.5625 36.1354 22.5627 32.4496 18.8769L19.6934 6.11934ZM18.074 27.3618L8.2625 17.5503L17.7884 8.02458L27.5999 17.8361L18.074 27.3618Z" fill="#0EA5E9"/>
<path d="M51.56 29.0799C49.6076 29.0799 48.1151 28.507 47.0824 27.3614C46.0577 26.2158 45.4849 24.6506 45.3639 22.6659L48.462 21.8914C48.6153 24.9894 49.6479 26.5385 51.56 26.5385C53.1091 26.5385 53.8836 25.764 53.8836 24.2149C53.8836 23.7551 53.819 23.3315 53.6899 22.9442C53.5689 22.5489 53.3793 22.1899 53.1212 21.8672C52.863 21.5364 52.629 21.2742 52.4193 21.0806C52.2095 20.8789 51.9231 20.6328 51.56 20.3424L47.6875 17.2443C46.9775 16.6876 46.4087 15.9817 45.9811 15.1265C45.5616 14.2632 45.3518 13.283 45.3518 12.1857C45.3518 10.5883 45.848 9.31761 46.8403 8.37367C47.8327 7.42973 49.1477 6.95776 50.7855 6.95776C52.5443 6.95776 53.9401 7.38939 54.9727 8.25266C56.0135 9.10785 56.6549 10.3221 56.8969 11.8953C56.9211 12.0647 56.9494 12.2987 56.9816 12.5972L53.8836 13.3717C53.8755 13.2346 53.8553 13.0288 53.8231 12.7545C53.6859 11.7702 53.3753 10.9836 52.8912 10.3947C52.4152 9.79765 51.7133 9.49914 50.7855 9.49914C50.0433 9.49914 49.4705 9.70891 49.0671 10.1284C48.6637 10.5399 48.462 11.1167 48.462 11.859C48.462 13.0772 48.9783 14.0978 50.011 14.9207L53.8836 18.0188C55.9489 19.6889 56.9816 21.6857 56.9816 24.0092C56.9816 25.5986 56.4895 26.841 55.5052 27.7366C54.529 28.6321 53.2139 29.0799 51.56 29.0799Z" fill="#18181B"/>
<path d="M63.4561 26.5385C64.271 26.5385 65.0455 26.3287 65.7796 25.9092V16.3246C65.7474 16.3084 65.6667 16.26 65.5376 16.1793C65.4085 16.0987 65.3157 16.0462 65.2593 16.022C65.2109 15.9897 65.1261 15.9413 65.0051 15.8768C64.8841 15.8122 64.7833 15.7679 64.7026 15.7437C64.63 15.7114 64.5332 15.6791 64.4121 15.6469C64.2992 15.6065 64.1862 15.5783 64.0733 15.5621C63.9684 15.546 63.8555 15.5379 63.7344 15.5379C63.4763 15.5379 63.2463 15.5984 63.0446 15.7195C62.851 15.8324 62.6897 15.9696 62.5606 16.1309C62.4315 16.2923 62.3185 16.5222 62.2217 16.8207C62.133 17.1192 62.0684 17.3855 62.0281 17.6194C61.9877 17.8453 61.9555 18.1519 61.9313 18.5392C61.9071 18.9184 61.8909 19.2129 61.8829 19.4226C61.8829 19.6324 61.8829 19.9269 61.8829 20.306C61.8829 20.3222 61.8829 20.3343 61.8829 20.3424C61.8829 20.4795 61.8829 20.7014 61.8829 21.008C61.8829 21.3145 61.8829 21.609 61.8829 21.8914C61.8829 22.1738 61.8829 22.44 61.8829 22.6901C61.8909 23.2306 61.9151 23.7067 61.9555 24.1181C62.0039 24.5215 62.0805 24.9209 62.1854 25.3162C62.2984 25.7035 62.4597 26.006 62.6695 26.2238C62.8873 26.4336 63.1495 26.5385 63.4561 26.5385ZM65.7796 33.5091V27.4703C65.3198 27.9463 64.8438 28.3336 64.3516 28.6321C63.8676 28.9306 63.3109 29.0799 62.6816 29.0799C62.0846 29.0799 61.5521 28.9306 61.0841 28.6321C60.6243 28.3255 60.2532 27.9342 59.9708 27.4582C59.6965 26.9822 59.4665 26.4215 59.281 25.7761C59.1035 25.1226 58.9784 24.4812 58.9058 23.8519C58.8413 23.2226 58.809 22.5691 58.809 21.8914V19.5315C58.809 18.8296 58.8413 18.1882 58.9058 17.6073C58.9704 17.0265 59.0873 16.4536 59.2568 15.8889C59.4262 15.3241 59.6481 14.8481 59.9224 14.4609C60.2048 14.0656 60.5759 13.7509 61.0357 13.5169C61.4956 13.2749 62.0281 13.1539 62.6332 13.1539C62.9801 13.1539 63.3028 13.2023 63.6013 13.2991C63.9079 13.3879 64.1983 13.5331 64.4727 13.7348C64.755 13.9365 64.9729 14.114 65.1261 14.2673C65.2875 14.4125 65.5053 14.6303 65.7796 14.9207V13.3717H68.8777V33.5091H65.7796Z" fill="#18181B"/>
<path d="M73.5732 29.0799C72.8955 29.0799 72.3509 28.8419 71.9395 28.3658C71.528 27.8818 71.3223 27.2848 71.3223 26.5748V13.3717H74.4203V25.6308C74.4203 25.9536 74.5171 26.2158 74.7108 26.4175C74.9125 26.6192 75.1706 26.72 75.4853 26.72C75.6547 26.72 75.8201 26.6998 75.9815 26.6595C76.1428 26.6192 76.3001 26.5506 76.4534 26.4538C76.6148 26.3489 76.7398 26.2682 76.8286 26.2117C76.9173 26.1472 77.0424 26.0423 77.2037 25.8971C77.3732 25.7519 77.4781 25.6631 77.5184 25.6308V13.3717H80.6165V28.862H77.5184V27.192C77.2118 27.4582 76.9859 27.6518 76.8407 27.7729C76.7035 27.8939 76.4897 28.0593 76.1993 28.269C75.9089 28.4707 75.6507 28.62 75.4248 28.7168C75.2069 28.8055 74.9326 28.8862 74.6019 28.9588C74.2711 29.0395 73.9282 29.0799 73.5732 29.0799Z" fill="#18181B"/>
<path d="M87.5629 26.5385C87.7807 26.5385 87.9905 26.4739 88.1922 26.3448C88.4019 26.2158 88.5593 26.0907 88.6642 25.9697C88.769 25.8487 88.8981 25.6873 89.0514 25.4856C89.0756 25.4453 89.0958 25.417 89.1119 25.4009V21.1169C88.9828 21.2056 88.769 21.3428 88.4705 21.5283C88.172 21.7139 87.934 21.8672 87.7565 21.9882C87.579 22.1011 87.3652 22.2625 87.1151 22.4723C86.865 22.674 86.6714 22.8716 86.5342 23.0653C86.3971 23.2508 86.2761 23.4808 86.1712 23.7551C86.0663 24.0294 86.0139 24.3158 86.0139 24.6143C86.0139 25.8971 86.5302 26.5385 87.5629 26.5385ZM86.0139 29.0799C85.1506 29.0799 84.4164 28.7087 83.8113 27.9665C83.2143 27.2162 82.9158 26.3731 82.9158 25.4372C82.9158 24.6869 83.0408 24.0052 83.291 23.392C83.5491 22.7788 83.8194 22.2907 84.1018 21.9277C84.3841 21.5566 84.8561 21.1774 85.5177 20.7901C86.1792 20.3948 86.6795 20.1245 87.0183 19.9793C87.3572 19.8341 87.9461 19.5961 88.7852 19.2653C88.9304 19.2088 89.0393 19.1644 89.1119 19.1322V18.0188C89.1119 17.2362 89.003 16.6311 88.7852 16.2035C88.5673 15.7679 88.1599 15.55 87.5629 15.55C87.0304 15.55 86.6472 15.7356 86.4132 16.1067C86.1873 16.4698 86.0582 16.974 86.026 17.6194C86.0179 17.7082 86.0139 17.8413 86.0139 18.0188H82.9158C82.9319 16.5343 83.3474 15.3524 84.1623 14.473C84.9771 13.5936 86.1107 13.1539 87.5629 13.1539C89.007 13.1539 90.1406 13.6017 90.9635 14.4972C91.7945 15.3847 92.21 16.5585 92.21 18.0188V24.9894C92.21 26.603 92.3431 27.8939 92.6093 28.862H89.5234L89.1119 26.5385C88.9506 26.8612 88.8174 27.1113 88.7126 27.2888C88.6157 27.4663 88.4705 27.6881 88.2769 27.9544C88.0833 28.2126 87.8896 28.4143 87.696 28.5595C87.5024 28.6966 87.2603 28.8176 86.9699 28.9225C86.6795 29.0274 86.3608 29.0799 86.0139 29.0799Z" fill="#18181B"/>
<path d="M94.8845 28.862V13.3717H97.9825V15.4411C98.2972 14.828 98.753 14.2955 99.35 13.8437C99.9551 13.3838 100.625 13.1539 101.359 13.1539C101.383 13.1539 101.549 13.17 101.855 13.2023V16.6271C101.282 16.4012 100.709 16.2883 100.137 16.2883C99.4912 16.2883 98.9709 16.4819 98.5755 16.8691C98.1802 17.2564 97.9825 17.7687 97.9825 18.4061V28.862H94.8845Z" fill="#18181B"/>
<path d="M107.543 29.0799C106.793 29.0799 106.139 28.9508 105.582 28.6926C105.034 28.4344 104.594 28.0996 104.263 27.6881C103.941 27.2686 103.678 26.7361 103.477 26.0907C103.275 25.4372 103.134 24.7877 103.053 24.1423C102.981 23.4888 102.936 22.7304 102.92 21.8672C102.896 21.1895 102.896 20.5118 102.92 19.8341C102.944 19.0273 102.997 18.3133 103.077 17.6921C103.166 17.0628 103.315 16.4536 103.525 15.8647C103.735 15.2757 104.005 14.7917 104.336 14.4125C104.675 14.0333 105.115 13.7307 105.655 13.5048C106.204 13.2709 106.841 13.1539 107.567 13.1539C108.229 13.1539 108.81 13.2426 109.31 13.4201C109.818 13.5896 110.238 13.8518 110.568 14.2067C110.907 14.5537 111.186 14.9409 111.403 15.3685C111.629 15.7961 111.799 16.3165 111.912 16.9296C112.025 17.5347 112.101 18.1318 112.142 18.7207C112.19 19.3097 112.214 19.9874 112.214 20.7538V21.1169H106.018V21.8914C106.018 21.9963 106.018 22.1617 106.018 22.3876C106.002 22.6861 105.998 22.9967 106.006 23.3194C106.022 23.634 106.038 23.9447 106.054 24.2512C106.071 24.5578 106.115 24.8523 106.188 25.1347C106.26 25.409 106.349 25.651 106.454 25.8608C106.559 26.0705 106.704 26.2359 106.889 26.3569C107.083 26.478 107.309 26.5385 107.567 26.5385C107.89 26.5385 108.156 26.478 108.366 26.3569C108.576 26.2279 108.729 26.0383 108.826 25.7882C108.931 25.5381 109.003 25.288 109.044 25.0379C109.084 24.7877 109.108 24.4731 109.116 24.0939V23.4404H112.19V24.0576C112.117 25.7115 111.71 26.962 110.968 27.8092C110.226 28.6563 109.084 29.0799 107.543 29.0799ZM106.018 19.5678H109.092V18.636C109.084 18.2245 109.06 17.8655 109.019 17.5589C108.979 17.2524 108.906 16.9458 108.802 16.6392C108.705 16.3326 108.551 16.0987 108.342 15.9373C108.132 15.7759 107.874 15.6953 107.567 15.6953C107.253 15.6953 106.986 15.78 106.768 15.9494C106.559 16.1188 106.401 16.3649 106.296 16.6876C106.2 17.0023 106.131 17.3129 106.091 17.6194C106.05 17.926 106.026 18.2931 106.018 18.7207V19.5678Z" fill="#18181B"/>
<path d="M120.25 29.0799C118.297 29.0799 116.805 28.507 115.772 27.3614C114.748 26.2158 114.175 24.6506 114.054 22.6659L117.152 21.8914C117.305 24.9894 118.338 26.5385 120.25 26.5385C121.799 26.5385 122.573 25.764 122.573 24.2149C122.573 23.7551 122.509 23.3315 122.38 22.9442C122.259 22.5489 122.069 22.1899 121.811 21.8672C121.553 21.5364 121.319 21.2742 121.109 21.0806C120.899 20.8789 120.613 20.6328 120.25 20.3424L116.377 17.2443C115.667 16.6876 115.099 15.9817 114.671 15.1265C114.251 14.2632 114.042 13.283 114.042 12.1857C114.042 10.5883 114.538 9.31761 115.53 8.37367C116.522 7.42973 117.838 6.95776 119.475 6.95776C121.234 6.95776 122.63 7.38939 123.663 8.25266C124.703 9.10785 125.345 10.3221 125.587 11.8953C125.611 12.0647 125.639 12.2987 125.671 12.5972L122.573 13.3717C122.565 13.2346 122.545 13.0288 122.513 12.7545C122.376 11.7702 122.065 10.9836 121.581 10.3947C121.105 9.79765 120.403 9.49914 119.475 9.49914C118.733 9.49914 118.16 9.70891 117.757 10.1284C117.353 10.5399 117.152 11.1167 117.152 11.859C117.152 13.0772 117.668 14.0978 118.701 14.9207L122.573 18.0188C124.639 19.6889 125.671 21.6857 125.671 24.0092C125.671 25.5986 125.179 26.841 124.195 27.7366C123.219 28.6321 121.904 29.0799 120.25 29.0799Z" fill="#18181B"/>
<path d="M132.098 29.0799C130.879 29.0799 129.992 28.7692 129.435 28.148C128.887 27.5268 128.604 26.5869 128.588 25.3283V15.6953H127.039V13.3717H128.588V7.95011H131.686V13.3717H134.01V15.6953H131.686V24.7353C131.686 25.3565 131.771 25.8124 131.94 26.1028C132.11 26.3933 132.452 26.5385 132.969 26.5385C133.195 26.5385 133.542 26.4981 134.01 26.4175V28.9346C133.235 29.0314 132.598 29.0799 132.098 29.0799Z" fill="#18181B"/>
<path d="M144.103 27.6276C143.384 28.5958 142.194 29.0799 140.532 29.0799C138.87 29.0799 137.68 28.5958 136.962 27.6276C136.244 26.6595 135.885 25.2638 135.885 23.4404V18.7933C135.885 16.97 136.244 15.5742 136.962 14.6061C137.68 13.638 138.87 13.1539 140.532 13.1539C142.194 13.1539 143.384 13.638 144.103 14.6061C144.821 15.5742 145.18 16.97 145.18 18.7933V23.4404C145.18 25.2638 144.821 26.6595 144.103 27.6276ZM139.952 26.4417C140.121 26.5062 140.315 26.5385 140.532 26.5385C140.75 26.5385 140.94 26.5062 141.101 26.4417C141.271 26.3771 141.408 26.3005 141.513 26.2117C141.626 26.1149 141.718 25.9778 141.791 25.8003C141.864 25.6147 141.92 25.4533 141.96 25.3162C142.001 25.179 142.029 24.9814 142.045 24.7232C142.061 24.465 142.069 24.2633 142.069 24.1181C142.077 23.9648 142.081 23.7389 142.081 23.4404V18.7933C142.081 18.4948 142.077 18.2729 142.069 18.1277C142.069 17.9744 142.061 17.7687 142.045 17.5105C142.029 17.2524 142.001 17.0547 141.96 16.9175C141.92 16.7804 141.864 16.6231 141.791 16.4456C141.718 16.26 141.626 16.1229 141.513 16.0341C141.408 15.9373 141.271 15.8566 141.101 15.7921C140.94 15.7275 140.75 15.6953 140.532 15.6953C140.315 15.6953 140.121 15.7275 139.952 15.7921C139.79 15.8566 139.653 15.9373 139.54 16.0341C139.435 16.1229 139.346 16.26 139.274 16.4456C139.201 16.6231 139.145 16.7804 139.104 16.9175C139.064 17.0547 139.036 17.2524 139.02 17.5105C139.004 17.7687 138.992 17.9744 138.983 18.1277C138.983 18.2729 138.983 18.4948 138.983 18.7933V23.4404C138.983 23.7389 138.983 23.9648 138.983 24.1181C138.992 24.2633 139.004 24.465 139.02 24.7232C139.036 24.9814 139.064 25.179 139.104 25.3162C139.145 25.4533 139.201 25.6147 139.274 25.8003C139.346 25.9778 139.435 26.1149 139.54 26.2117C139.653 26.3005 139.79 26.3771 139.952 26.4417Z" fill="#18181B"/>
<path d="M147.721 28.862V13.3717H150.819V15.0418C151.279 14.6222 151.654 14.3036 151.944 14.0857C152.235 13.8598 152.634 13.6501 153.143 13.4564C153.659 13.2547 154.208 13.1539 154.788 13.1539C155.45 13.1539 155.986 13.3959 156.398 13.88C156.809 14.3641 157.015 14.9571 157.015 15.659V28.862H153.917V17.2443C153.917 16.7037 153.84 16.3125 153.687 16.0704C153.534 15.8203 153.223 15.6953 152.755 15.6953C152.489 15.6953 152.223 15.7517 151.957 15.8647C151.698 15.9696 151.505 16.0704 151.376 16.1672C151.247 16.256 151.061 16.4012 150.819 16.6029V28.862H147.721Z" fill="#18181B"/>
<path d="M164.107 29.0799C163.356 29.0799 162.703 28.9508 162.146 28.6926C161.598 28.4344 161.158 28.0996 160.827 27.6881C160.504 27.2686 160.242 26.7361 160.041 26.0907C159.839 25.4372 159.698 24.7877 159.617 24.1423C159.544 23.4888 159.5 22.7304 159.484 21.8672C159.46 21.1895 159.46 20.5118 159.484 19.8341C159.508 19.0273 159.561 18.3133 159.641 17.6921C159.73 17.0628 159.879 16.4536 160.089 15.8647C160.299 15.2757 160.569 14.7917 160.9 14.4125C161.239 14.0333 161.678 13.7307 162.219 13.5048C162.768 13.2709 163.405 13.1539 164.131 13.1539C164.793 13.1539 165.373 13.2426 165.874 13.4201C166.382 13.5896 166.801 13.8518 167.132 14.2067C167.471 14.5537 167.749 14.9409 167.967 15.3685C168.193 15.7961 168.363 16.3165 168.476 16.9296C168.588 17.5347 168.665 18.1318 168.705 18.7207C168.754 19.3097 168.778 19.9874 168.778 20.7538V21.1169H162.582V21.8914C162.582 21.9963 162.582 22.1617 162.582 22.3876C162.566 22.6861 162.562 22.9967 162.57 23.3194C162.586 23.634 162.602 23.9447 162.618 24.2512C162.634 24.5578 162.679 24.8523 162.751 25.1347C162.824 25.409 162.913 25.651 163.018 25.8608C163.122 26.0705 163.268 26.2359 163.453 26.3569C163.647 26.478 163.873 26.5385 164.131 26.5385C164.454 26.5385 164.72 26.478 164.93 26.3569C165.139 26.2279 165.293 26.0383 165.39 25.7882C165.494 25.5381 165.567 25.288 165.607 25.0379C165.648 24.7877 165.672 24.4731 165.68 24.0939V23.4404H168.754V24.0576C168.681 25.7115 168.274 26.962 167.532 27.8092C166.789 28.6563 165.648 29.0799 164.107 29.0799ZM162.582 19.5678H165.656V18.636C165.648 18.2245 165.624 17.8655 165.583 17.5589C165.543 17.2524 165.47 16.9458 165.365 16.6392C165.269 16.3326 165.115 16.0987 164.905 15.9373C164.696 15.7759 164.438 15.6953 164.131 15.6953C163.816 15.6953 163.55 15.78 163.332 15.9494C163.122 16.1188 162.965 16.3649 162.86 16.6876C162.763 17.0023 162.695 17.3129 162.655 17.6194C162.614 17.926 162.59 18.2931 162.582 18.7207V19.5678Z" fill="#18181B"/>
</svg>
