<svg width="163" height="33" viewBox="0 0 163 33" fill="none" xmlns="http://www.w3.org/2000/svg">
<path d="M6.82552 11.2866L10.8149 8.98584L8.5881 5.13099H29.5307L19.0628 23.2682L16.8359 19.4066L12.8466 21.7141L19.0628 32.4782L37.5094 0.522705H0.609375L6.82552 11.2866Z" fill="#FBBF24"/>
<path d="M54.06 26.6227L62.025 7.72266H58.218L52.602 21.4387L46.959 7.72266H43.152L51.117 26.6227H54.06Z" fill="#3F3F46"/>
<path d="M66.5285 7.72266V26.6227H80.5955V23.2747H70.1465V18.7387H78.9755V15.3907H70.1465V11.0707H80.4605V7.72266H66.5285Z" fill="#3F3F46"/>
<path d="M85.7871 7.72266V26.6227H89.4051V19.9537H93.8061L97.7751 26.6227H101.798L97.4781 19.3327C99.6651 18.3607 101.069 16.2817 101.069 13.8247C101.069 12.0967 100.448 10.6387 99.1791 9.47766C97.9371 8.31666 96.3981 7.72266 94.5351 7.72266H85.7871ZM94.5351 11.0707C96.1281 11.0707 97.2891 12.2317 97.2891 13.8247C97.2891 15.4177 96.1281 16.6057 94.5351 16.6057H89.4051V11.0707H94.5351Z" fill="#3F3F46"/>
<path d="M111.473 11.0707V26.6227H115.118V11.0707H121.382V7.72266H105.209V11.0707H111.473Z" fill="#3F3F46"/>
<path d="M126.308 7.72266V26.6227H140.375V23.2747H129.926V18.7387H138.755V15.3907H129.926V11.0707H140.24V7.72266H126.308Z" fill="#3F3F46"/>
<path d="M151.264 16.9837L144.244 26.6227H148.591L153.424 19.9537L158.257 26.6227H162.577L155.584 16.9837L162.307 7.72266H157.987L153.424 14.0137L148.861 7.72266H144.514L151.264 16.9837Z" fill="#3F3F46"/>
</svg>
