<svg width="95" height="32" viewBox="0 0 95 32" fill="none" xmlns="http://www.w3.org/2000/svg">
<rect x="0.35791" y="0.812744" width="94.6049" height="30.5177" rx="15.2589" fill="white"/>
<path d="M33.9835 20.7583L31.0684 10.874H34.0607L35.4121 16.9552H35.4893L37.0917 10.874H39.4469L41.0493 16.9745H41.1265L42.4779 10.874H45.4702L42.5551 20.7583H39.9875L38.3079 15.237H38.2307L36.5511 20.7583H33.9835Z" fill="#1E293B"/>
<path d="M47.5805 20.8741C47.1075 20.8741 46.6892 20.7969 46.3256 20.6425C45.9653 20.4848 45.6821 20.2467 45.4762 19.9282C45.2703 19.6096 45.1673 19.2042 45.1673 18.7119C45.1673 18.3065 45.2365 17.9606 45.3749 17.6743C45.5132 17.3847 45.7063 17.1482 45.954 16.9648C46.2018 16.7814 46.4897 16.6414 46.8179 16.5449C47.1493 16.4484 47.5065 16.3856 47.8894 16.3567C48.3044 16.3245 48.6374 16.2859 48.8884 16.2409C49.1426 16.1926 49.326 16.1266 49.4386 16.043C49.5512 15.9561 49.6075 15.8419 49.6075 15.7003V15.681C49.6075 15.4879 49.5335 15.3399 49.3855 15.237C49.2375 15.134 49.0477 15.0825 48.816 15.0825C48.5618 15.0825 48.3543 15.1388 48.1934 15.2515C48.0358 15.3609 47.9408 15.5298 47.9087 15.7582H45.4569C45.4891 15.3078 45.6323 14.8927 45.8864 14.513C46.1438 14.1301 46.5187 13.8245 47.011 13.596C47.5033 13.3644 48.1178 13.2485 48.8546 13.2485C49.3855 13.2485 49.8617 13.3113 50.2832 13.4368C50.7047 13.559 51.0635 13.7312 51.3595 13.9532C51.6555 14.172 51.8807 14.4294 52.0352 14.7254C52.1928 15.0182 52.2717 15.3367 52.2717 15.681V20.7583H49.7813V19.7158H49.7234C49.5754 19.9925 49.3952 20.2161 49.1828 20.3867C48.9737 20.5572 48.734 20.6811 48.4637 20.7583C48.1966 20.8355 47.9022 20.8741 47.5805 20.8741ZM48.4492 19.1946C48.6519 19.1946 48.8418 19.1527 49.0187 19.0691C49.1989 18.9854 49.3453 18.8648 49.4579 18.7071C49.5705 18.5494 49.6268 18.358 49.6268 18.1328V17.515C49.5561 17.544 49.4804 17.5713 49.4 17.5971C49.3228 17.6228 49.2391 17.6469 49.149 17.6694C49.0622 17.692 48.9689 17.7129 48.8691 17.7322C48.7726 17.7515 48.6712 17.7692 48.5651 17.7853C48.3591 17.8175 48.1902 17.8705 48.0583 17.9445C47.9296 18.0153 47.8331 18.1038 47.7687 18.21C47.7076 18.313 47.677 18.4288 47.677 18.5575C47.677 18.7634 47.7494 18.9211 47.8942 19.0305C48.039 19.1399 48.224 19.1946 48.4492 19.1946Z" fill="#1E293B"/>
<path d="M60.7503 13.3451L58.2599 20.7583H55.1711L52.6807 13.3451H55.48L56.6769 18.2486H56.7541L57.951 13.3451H60.7503Z" fill="#1E293B"/>
<path d="M64.8346 20.8934C64.0431 20.8934 63.361 20.7422 62.7882 20.4398C62.2187 20.1341 61.7795 19.6965 61.4706 19.127C61.165 18.5543 61.0121 17.8689 61.0121 17.071C61.0121 16.3052 61.1666 15.636 61.4755 15.0632C61.7844 14.4905 62.2203 14.0449 62.7834 13.7263C63.3465 13.4078 64.0109 13.2485 64.7767 13.2485C65.3365 13.2485 65.8433 13.3354 66.297 13.5092C66.7506 13.6829 67.1384 13.9355 67.4601 14.2669C67.7819 14.5951 68.0296 14.9941 68.2034 15.4638C68.3771 15.9336 68.464 16.4629 68.464 17.0517V17.6694H61.8423V16.2022H66.0122C66.009 15.9899 65.9543 15.8033 65.8481 15.6424C65.7452 15.4783 65.6052 15.3512 65.4282 15.2611C65.2545 15.1678 65.0566 15.1211 64.8346 15.1211C64.619 15.1211 64.4211 15.1678 64.241 15.2611C64.0608 15.3512 63.916 15.4767 63.8066 15.6376C63.7004 15.7984 63.6441 15.9867 63.6377 16.2022V17.7853C63.6377 18.0234 63.6875 18.2357 63.7873 18.4224C63.887 18.609 64.0302 18.7554 64.2168 18.8616C64.4034 18.9677 64.6287 19.0208 64.8925 19.0208C65.0759 19.0208 65.2432 18.9951 65.3945 18.9436C65.5489 18.8921 65.6808 18.8181 65.7902 18.7216C65.8996 18.6218 65.98 18.5028 66.0315 18.3644H68.464C68.3803 18.8792 68.1825 19.3265 67.8704 19.7062C67.5583 20.0826 67.1448 20.3754 66.63 20.5845C66.1184 20.7905 65.5199 20.8934 64.8346 20.8934Z" fill="#1E293B"/>
<path d="M69.5511 20.7583V13.3451H72.138V14.7543H72.2153C72.3504 14.2331 72.5644 13.8518 72.8572 13.6105C73.1532 13.3692 73.4991 13.2485 73.8948 13.2485C74.0106 13.2485 74.1249 13.2582 74.2375 13.2775C74.3533 13.2936 74.4643 13.3177 74.5705 13.3499V15.6231C74.4386 15.578 74.2761 15.5443 74.083 15.5217C73.89 15.4992 73.7243 15.4879 73.5859 15.4879C73.3253 15.4879 73.0904 15.5475 72.8813 15.6665C72.6754 15.7824 72.5129 15.9464 72.3938 16.1588C72.2748 16.3679 72.2153 16.6141 72.2153 16.8972V20.7583H69.5511Z" fill="#1E293B"/>
<path d="M75.4441 20.7583V13.3451H78.1082V20.7583H75.4441ZM76.7761 12.5728C76.4158 12.5728 76.1069 12.4538 75.8495 12.2157C75.5921 11.9776 75.4634 11.6912 75.4634 11.3566C75.4634 11.022 75.5921 10.7356 75.8495 10.4975C76.1069 10.2594 76.4158 10.1404 76.7761 10.1404C77.1397 10.1404 77.4486 10.2594 77.7028 10.4975C77.9602 10.7356 78.0889 11.022 78.0889 11.3566C78.0889 11.6912 77.9602 11.9776 77.7028 12.2157C77.4486 12.4538 77.1397 12.5728 76.7761 12.5728Z" fill="#1E293B"/>
<path d="M83.0371 20.8934C82.2327 20.8934 81.5441 20.7342 80.9714 20.4156C80.3987 20.0939 79.9595 19.6466 79.6538 19.0739C79.3482 18.498 79.1953 17.8303 79.1953 17.071C79.1953 16.3116 79.3482 15.6456 79.6538 15.0729C79.9595 14.4969 80.3987 14.0497 80.9714 13.7312C81.5441 13.4094 82.2327 13.2485 83.0371 13.2485C83.8415 13.2485 84.53 13.4094 85.1027 13.7312C85.6755 14.0497 86.1147 14.4969 86.4203 15.0729C86.726 15.6456 86.8788 16.3116 86.8788 17.071C86.8788 17.8303 86.726 18.498 86.4203 19.0739C86.1147 19.6466 85.6755 20.0939 85.1027 20.4156C84.53 20.7342 83.8415 20.8934 83.0371 20.8934ZM83.0564 18.9243C83.2816 18.9243 83.4763 18.8487 83.6404 18.6975C83.8045 18.5462 83.9316 18.3307 84.0217 18.0507C84.1117 17.7708 84.1568 17.4378 84.1568 17.0517C84.1568 16.6624 84.1117 16.3293 84.0217 16.0526C83.9316 15.7727 83.8045 15.5571 83.6404 15.4059C83.4763 15.2547 83.2816 15.1791 83.0564 15.1791C82.8183 15.1791 82.614 15.2547 82.4434 15.4059C82.2729 15.5571 82.1426 15.7727 82.0525 16.0526C81.9624 16.3293 81.9174 16.6624 81.9174 17.0517C81.9174 17.4378 81.9624 17.7708 82.0525 18.0507C82.1426 18.3307 82.2729 18.5462 82.4434 18.6975C82.614 18.8487 82.8183 18.9243 83.0564 18.9243Z" fill="#1E293B"/>
<path fill-rule="evenodd" clip-rule="evenodd" d="M10.5157 8.07423C9.81251 8.5659 9.17667 9.14721 8.6247 9.80159C10.8803 9.59218 13.746 9.93412 17.073 11.5976C20.6258 13.374 23.4866 13.434 25.4777 13.05C25.297 12.503 25.0695 11.9773 24.8001 11.4776C22.521 11.718 19.599 11.3998 16.1938 9.69719C14.0314 8.616 12.1253 8.17063 10.5157 8.07423ZM23.4687 9.58251C21.6689 7.5715 19.0532 6.30591 16.1419 6.30591C15.2869 6.30591 14.4574 6.41507 13.6666 6.62021C14.7376 6.91245 15.8754 7.34 17.073 7.93877C19.5661 9.18532 21.7185 9.58669 23.4687 9.58251ZM25.9034 14.97C23.498 15.4449 20.1764 15.3474 16.1938 13.356C12.4704 11.4944 9.50698 11.5178 7.50831 11.962C7.40515 11.9849 7.30441 12.009 7.20611 12.034C6.94444 12.6031 6.73556 13.2016 6.58569 13.823C6.74576 13.7803 6.91117 13.7396 7.08183 13.7017C9.50656 13.1628 12.9325 13.1862 17.073 15.2565C20.7964 17.1182 23.7598 17.0947 25.7585 16.6506C25.827 16.6354 25.8945 16.6196 25.9608 16.6034C25.9681 16.4485 25.9717 16.2925 25.9717 16.1357C25.9717 15.7413 25.9485 15.3523 25.9034 14.97ZM25.6399 18.6779C23.2579 19.0943 20.033 18.9345 16.1938 17.0149C12.4704 15.1532 9.50698 15.1767 7.50831 15.6208C7.06467 15.7194 6.66557 15.8395 6.31351 15.9662C6.31255 16.0226 6.31207 16.0791 6.31207 16.1357C6.31207 21.5646 10.713 25.9656 16.1419 25.9656C20.6917 25.9656 24.5195 22.8745 25.6399 18.6779Z" fill="#7F57F1"/>
</svg>
