<svg width="149" height="35" viewBox="0 0 149 35" fill="none" xmlns="http://www.w3.org/2000/svg">
<path d="M28.5307 13.3905L28.5108 13.3705C28.5092 13.3694 28.5079 13.3679 28.5071 13.3662L16.0555 0.914307L3.60402 13.3659C3.60259 13.3673 3.60178 13.3693 3.60033 13.3702L3.57979 13.3901C1.67579 15.3048 0.466414 17.801 0.143929 20.482C-0.178556 23.1629 0.404354 25.8748 1.79999 28.1864C3.19563 30.4981 5.3239 32.2769 7.84649 33.24C10.3691 34.203 13.1412 34.2953 15.7222 33.5019C15.9394 33.4355 16.1715 33.4355 16.3887 33.5019C18.9695 34.295 21.7415 34.2027 24.2639 33.2395C26.7863 32.2763 28.9144 30.4976 30.3099 28.1861C31.7054 25.8746 32.2884 23.1629 31.9661 20.4821C31.6437 17.8013 30.4345 15.3052 28.5307 13.3905ZM8.0316 21.6015C7.97099 21.6621 7.92292 21.7341 7.89014 21.8132C7.85734 21.8923 7.84046 21.9772 7.84047 22.0629C7.86263 24.2606 8.48371 26.4105 9.63686 28.2814C9.66306 28.3239 9.67516 28.3736 9.67145 28.4232C9.66773 28.4729 9.64839 28.5202 9.61617 28.5583C9.58397 28.5964 9.54054 28.6232 9.49212 28.6351C9.44369 28.647 9.39274 28.6433 9.34657 28.6245C8.47966 28.2599 7.69211 27.7298 7.02797 27.064C5.66693 25.7027 4.90178 23.8569 4.90054 21.9319C4.8993 20.0069 5.66209 18.16 7.02139 16.7971L16.0555 7.76382L25.0891 16.7971C26.4487 18.1599 27.2117 20.0067 27.2104 21.9319C27.2093 23.8569 26.444 25.7027 25.0829 27.064C24.4187 27.7298 23.6312 28.2599 22.7645 28.6245C22.7182 28.6433 22.6672 28.647 22.6188 28.6351C22.5704 28.6232 22.527 28.5962 22.4947 28.5583C22.4625 28.5202 22.4431 28.4729 22.4394 28.4231C22.4357 28.3734 22.4477 28.3237 22.474 28.2813C23.6274 26.4105 24.2488 24.2606 24.2713 22.0629C24.2713 21.9772 24.2542 21.8923 24.2213 21.8131C24.1883 21.7338 24.1401 21.6619 24.0793 21.6013L19.8063 17.069C19.7637 17.0335 19.7102 17.014 19.6547 17.014C19.5994 17.014 19.5457 17.0335 19.5033 17.069C19.4607 17.1044 19.4321 17.1537 19.4221 17.2082C19.4121 17.2627 19.4216 17.3189 19.4489 17.3671C21.1085 20.3702 19.6814 24.6839 17.3016 27.064L17.2891 27.0766C16.9606 27.4015 16.5172 27.5837 16.0552 27.5835C15.5931 27.5833 15.1498 27.4009 14.8216 27.0758L14.81 27.064C12.4293 24.6839 11.003 20.3707 12.6628 17.3677C12.6901 17.3195 12.6996 17.2634 12.6897 17.2089C12.6798 17.1544 12.651 17.105 12.6085 17.0697C12.566 17.0341 12.5124 17.0147 12.457 17.0147C12.4016 17.0147 12.348 17.0341 12.3054 17.0697L8.0316 21.6015Z" fill="url(#paint0_linear_1_410)"/>
<path d="M59.1636 11.3137H63.2846L59.01 25.5965H54.3003L52.3038 17.1497L50.2817 25.5965H45.572L41.2974 11.3137H45.6743L47.9012 21.3475L50.1025 11.3137H54.7354L56.9367 21.3475L59.1636 11.3137Z" fill="#18181B"/>
<path d="M73.9893 21.0659C74.6207 20.4516 74.9364 19.5813 74.9364 18.4551C74.9364 17.3289 74.6207 16.4671 73.9893 15.8699C73.3579 15.2556 72.6327 14.9484 71.8136 14.9484C70.9945 14.9484 70.2693 15.2556 69.6379 15.8699C69.0065 16.4842 68.6908 17.3545 68.6908 18.4807C68.6908 19.6069 69.0065 20.4772 69.6379 21.0915C70.2693 21.6888 70.9945 21.9874 71.8136 21.9874C72.6327 21.9874 73.3579 21.6802 73.9893 21.0659ZM66.1312 23.7279C64.8685 22.3628 64.2371 20.6137 64.2371 18.4807C64.2371 16.3477 64.8685 14.5986 66.1312 13.2334C67.394 11.8512 68.9297 11.1601 70.7386 11.1601C72.5644 11.1601 73.9637 11.8342 74.9364 13.1823V11.3137H79.3133V25.5965H74.9364V23.5232C73.8784 25.0248 72.462 25.7757 70.6874 25.7757C68.9127 25.7757 67.394 25.0931 66.1312 23.7279Z" fill="#18181B"/>
<path d="M81.3416 11.3137H86.0002L89.2509 21.9362L92.5016 11.3137H97.1602L92.0921 25.5965H86.4097L81.3416 11.3137Z" fill="#18181B"/>
<path d="M105.248 25.7757C103.166 25.7757 101.46 25.1101 100.129 23.7791C98.7977 22.4311 98.1322 20.6479 98.1322 18.4295C98.1322 16.2112 98.7892 14.445 100.103 13.1311C101.434 11.8171 103.149 11.1601 105.248 11.1601C107.347 11.1601 109.087 11.8086 110.47 13.1055C111.852 14.4023 112.543 16.2026 112.543 18.5063C112.543 19.0012 112.509 19.4619 112.441 19.8885H102.612C102.697 20.5199 102.978 21.0403 103.456 21.4499C103.934 21.8424 104.446 22.0386 104.992 22.0386C105.555 22.0386 105.973 21.9874 106.246 21.885C106.519 21.7656 106.716 21.6546 106.835 21.5523C106.972 21.4328 107.142 21.2451 107.347 20.9891H112.082C111.673 22.4225 110.854 23.5829 109.625 24.4702C108.396 25.3405 106.937 25.7757 105.248 25.7757ZM107.987 17.1497C107.919 16.4842 107.628 15.9467 107.117 15.5371C106.605 15.1105 105.999 14.8972 105.299 14.8972C104.6 14.8972 104.011 15.1105 103.533 15.5371C103.055 15.9467 102.757 16.4842 102.637 17.1497H107.987Z" fill="#18181B"/>
<path d="M119.731 11.3137V13.9757C120.755 12.0987 122.12 11.1601 123.827 11.1601V15.6139H122.752C121.745 15.6139 120.986 15.8528 120.474 16.3306C119.979 16.8084 119.731 17.6446 119.731 18.839V25.5965H115.354V11.3137H119.731Z" fill="#18181B"/>
<path d="M130.196 9.70115C129.701 10.196 129.095 10.4434 128.379 10.4434C127.662 10.4434 127.056 10.196 126.561 9.70115C126.066 9.20629 125.819 8.60051 125.819 7.88381C125.819 7.15005 126.066 6.53574 126.561 6.04088C127.056 5.54602 127.662 5.29858 128.379 5.29858C129.095 5.29858 129.701 5.54602 130.196 6.04088C130.691 6.53574 130.938 7.15005 130.938 7.88381C130.938 8.60051 130.691 9.20629 130.196 9.70115ZM126.203 25.5965V11.3137H130.58V25.5965H126.203Z" fill="#18181B"/>
<path d="M143.001 21.1171C143.582 20.5028 143.872 19.6155 143.872 18.4551C143.872 17.2947 143.573 16.4159 142.976 15.8187C142.379 15.2044 141.67 14.8972 140.851 14.8972C140.032 14.8972 139.324 15.2044 138.727 15.8187C138.147 16.4159 137.857 17.2947 137.857 18.4551C137.857 19.6155 138.155 20.5028 138.752 21.1171C139.367 21.7314 140.083 22.0386 140.903 22.0386C141.722 22.0386 142.421 21.7314 143.001 21.1171ZM135.553 23.7535C134.119 22.4055 133.403 20.6308 133.403 18.4295C133.403 16.2282 134.119 14.4706 135.553 13.1567C136.986 11.8257 138.761 11.1601 140.877 11.1601C142.993 11.1601 144.759 11.8257 146.175 13.1567C147.609 14.4706 148.325 16.2282 148.325 18.4295C148.325 20.6308 147.617 22.4055 146.201 23.7535C144.785 25.1016 143.018 25.7757 140.903 25.7757C138.787 25.7757 137.003 25.1016 135.553 23.7535Z" fill="#18181B"/>
<defs>
<linearGradient id="paint0_linear_1_410" x1="16.055" y1="0.914307" x2="16.055" y2="34.0363" gradientUnits="userSpaceOnUse">
<stop stop-color="#F0B645"/>
<stop offset="1" stop-color="#D694FF"/>
</linearGradient>
</defs>
</svg>
